<svg xmlns="http://www.w3.org/2000/svg" version="1.0" viewBox="106.72 87.03 161.51 198.09"><defs><clipPath id="a"><path d="M 117.851562 87.628906 L 257.285156 87.628906 L 257.285156 237.03125 L 117.851562 237.03125 Z M 117.851562 87.628906"/></clipPath><clipPath id="b"><path d="M 118 87.03125 L 257 87.03125 L 257 234 L 118 234 Z M 118 87.03125"/></clipPath><clipPath id="c"><path d="M 117.851562 87.03125 L 257.285156 87.03125 L 257.285156 204.929688 L 117.851562 204.929688 Z M 117.851562 87.03125"/></clipPath></defs><g clip-path="url(#a)"><path d="M 257.285156 204.886719 L 257.285156 208.457031 L 245.953125 208.457031 L 245.953125 211.433594 L 231.65625 211.433594 L 231.65625 212.03125 L 232.257812 212.03125 L 232.257812 215.601562 L 228.683594 215.601562 L 228.683594 219.171875 L 217.953125 219.171875 L 217.953125 226.316406 L 203.65625 226.316406 L 203.65625 233.460938 L 196.503906 233.460938 L 196.503906 232.859375 L 195.90625 232.859375 L 195.90625 233.460938 L 196.503906 233.460938 L 196.503906 237.03125 L 178.628906 237.03125 L 178.628906 233.460938 L 179.230469 233.460938 L 179.230469 232.859375 L 178.628906 232.859375 L 178.628906 233.460938 L 171.480469 233.460938 L 171.480469 226.316406 L 157.179688 226.316406 L 157.179688 219.171875 L 146.453125 219.171875 L 146.453125 215.601562 L 142.878906 215.601562 L 142.878906 212.03125 L 143.480469 212.03125 L 143.480469 211.433594 L 129.183594 211.433594 L 129.183594 208.457031 L 117.851562 208.457031 L 117.851562 204.886719 L 118.453125 204.886719 L 118.453125 201.917969 L 122.03125 201.917969 L 122.03125 201.316406 L 121.429688 201.316406 L 121.429688 197.746094 L 125.003906 197.746094 L 125.003906 198.34375 L 125.605469 198.34375 L 125.605469 194.773438 L 154.203125 194.773438 L 154.203125 194.175781 L 153.605469 194.175781 L 153.605469 187.03125 L 150.03125 187.03125 L 150.03125 183.460938 L 142.878906 183.460938 L 142.878906 140.601562 L 143.480469 140.601562 L 143.480469 134.058594 L 147.054688 134.058594 L 147.054688 130.488281 L 150.628906 130.488281 L 150.628906 97.144531 L 147.054688 97.144531 L 147.054688 93.574219 L 143.480469 93.574219 L 143.480469 90 L 139.90625 90 L 139.90625 87.628906 L 149.429688 87.628906 L 149.429688 91.199219 L 153.003906 91.199219 L 153.003906 94.773438 L 156.582031 94.773438 L 156.582031 98.34375 L 160.15625 98.34375 L 160.15625 105.488281 L 163.726562 105.488281 L 163.726562 116.199219 L 172.078125 116.199219 L 172.078125 112.628906 L 182.804688 112.628906 L 182.804688 101.917969 L 192.332031 101.917969 L 192.332031 112.628906 L 203.054688 112.628906 L 203.054688 116.199219 L 211.40625 116.199219 L 211.40625 105.488281 L 214.980469 105.488281 L 214.980469 94.773438 L 222.132812 94.773438 L 222.132812 87.628906 L 235.230469 87.628906 L 235.230469 90 L 231.65625 90 L 231.65625 93.574219 L 228.082031 93.574219 L 228.082031 100.71875 L 224.503906 100.71875 L 224.503906 130.488281 L 228.082031 130.488281 L 228.082031 134.058594 L 231.65625 134.058594 L 231.65625 140.601562 L 232.257812 140.601562 L 232.257812 183.460938 L 221.53125 183.460938 L 221.53125 194.175781 L 220.933594 194.175781 L 220.933594 194.773438 L 249.53125 194.773438 L 249.53125 198.34375 L 250.132812 198.34375 L 250.132812 197.746094 L 253.707031 197.746094 L 253.707031 201.316406 L 253.105469 201.316406 L 253.105469 201.917969 L 256.683594 201.917969 L 256.683594 204.886719 L 257.285156 204.886719"/></g><g clip-path="url(#b)"><path fill="#FFBD59" d="M 256.683594 201.917969 L 256.683594 204.289062 L 218.554688 204.289062 L 218.554688 194.773438 L 249.53125 194.773438 L 249.53125 201.917969 Z M 156.582031 204.289062 L 118.453125 204.289062 L 118.453125 201.917969 L 125.605469 201.917969 L 125.605469 194.773438 L 156.582031 194.773438 Z M 168.507812 215 L 168.507812 219.773438 L 163.726562 219.773438 L 163.726562 215 Z M 167.304688 212.03125 L 167.90625 212.03125 L 167.90625 208.457031 L 160.753906 208.457031 L 160.753906 204.886719 L 157.179688 204.886719 L 157.179688 208.457031 L 128.582031 208.457031 L 128.582031 212.03125 L 161.355469 212.03125 L 161.355469 222.144531 L 170.878906 222.144531 L 170.878906 212.632812 L 167.304688 212.632812 Z M 193.53125 187.628906 L 188.753906 187.628906 L 188.753906 182.859375 L 193.53125 182.859375 Z M 193.53125 194.773438 L 188.753906 194.773438 L 188.753906 190 L 193.53125 190 Z M 193.53125 201.917969 L 188.753906 201.917969 L 188.753906 197.144531 L 193.53125 197.144531 Z M 185.179688 176.917969 L 185.179688 173.34375 L 182.804688 173.34375 L 182.804688 176.917969 L 179.230469 176.917969 L 179.230469 180.488281 L 170.878906 180.488281 L 170.878906 176.917969 L 167.304688 176.917969 L 167.304688 172.144531 L 167.90625 172.144531 L 167.90625 172.742188 L 172.078125 172.742188 L 172.078125 175.71875 L 178.03125 175.71875 L 178.03125 172.742188 L 182.203125 172.742188 L 182.203125 169.171875 L 181.601562 169.171875 L 181.601562 165.003906 L 193.53125 165.003906 L 193.53125 169.171875 L 192.933594 169.171875 L 192.933594 172.742188 L 197.105469 172.742188 L 197.105469 175.71875 L 203.054688 175.71875 L 203.054688 172.742188 L 207.230469 172.742188 L 207.230469 172.144531 L 207.832031 172.144531 L 207.832031 176.917969 L 204.257812 176.917969 L 204.257812 180.488281 L 195.90625 180.488281 L 195.90625 176.917969 L 192.332031 176.917969 L 192.332031 173.34375 L 189.957031 173.34375 L 189.957031 176.917969 Z M 186.382812 187.628906 L 181.601562 187.628906 L 181.601562 182.859375 L 186.382812 182.859375 Z M 186.382812 194.773438 L 181.601562 194.773438 L 181.601562 190 L 186.382812 190 Z M 186.382812 201.917969 L 181.601562 201.917969 L 181.601562 197.144531 L 186.382812 197.144531 Z M 174.457031 165.601562 L 175.058594 165.601562 L 175.058594 151.316406 L 174.457031 151.316406 L 174.457031 150.714844 L 179.230469 150.714844 L 179.230469 166.203125 L 174.457031 166.203125 Z M 163.726562 122.144531 L 167.304688 122.144531 L 167.304688 118.570312 L 174.457031 118.570312 L 174.457031 115 L 179.230469 115 L 179.230469 119.769531 L 175.65625 119.769531 L 175.65625 123.34375 L 168.507812 123.34375 L 168.507812 126.914062 L 164.929688 126.914062 L 164.929688 130.488281 L 161.355469 130.488281 L 161.355469 137.027344 L 157.179688 137.027344 L 157.179688 147.746094 L 157.78125 147.746094 L 157.78125 155.484375 L 157.179688 155.484375 L 157.179688 154.886719 L 153.605469 154.886719 L 153.605469 129.886719 L 157.179688 129.886719 L 157.179688 129.289062 L 160.15625 129.289062 L 160.15625 126.3125 L 160.753906 126.3125 L 160.753906 125.714844 L 163.726562 125.714844 Z M 185.179688 150.714844 L 185.78125 150.714844 L 185.78125 151.316406 L 189.355469 151.316406 L 189.355469 150.714844 L 189.957031 150.714844 L 189.957031 155.484375 L 189.355469 155.484375 L 189.355469 154.886719 L 185.78125 154.886719 L 185.78125 155.484375 L 185.179688 155.484375 Z M 195.90625 150.714844 L 200.679688 150.714844 L 200.679688 151.316406 L 200.078125 151.316406 L 200.078125 165.601562 L 200.679688 165.601562 L 200.679688 166.203125 L 195.90625 166.203125 Z M 195.90625 115 L 200.679688 115 L 200.679688 118.570312 L 207.832031 118.570312 L 207.832031 122.144531 L 211.40625 122.144531 L 211.40625 125.714844 L 214.382812 125.714844 L 214.382812 126.3125 L 214.980469 126.3125 L 214.980469 129.289062 L 217.953125 129.289062 L 217.953125 129.886719 L 221.53125 129.886719 L 221.53125 154.886719 L 217.953125 154.886719 L 217.953125 155.484375 L 217.355469 155.484375 L 217.355469 147.746094 L 217.953125 147.746094 L 217.953125 137.027344 L 213.78125 137.027344 L 213.78125 130.488281 L 210.207031 130.488281 L 210.207031 126.914062 L 206.628906 126.914062 L 206.628906 123.34375 L 199.480469 123.34375 L 199.480469 119.769531 L 195.90625 119.769531 Z M 195.90625 204.289062 L 199.480469 204.289062 L 199.480469 197.144531 L 204.257812 197.144531 L 204.257812 204.289062 L 210.207031 204.289062 L 210.207031 200.71875 L 213.78125 200.71875 L 213.78125 190 L 217.355469 190 L 217.355469 165.601562 L 217.953125 165.601562 L 217.953125 162.03125 L 221.53125 162.03125 L 221.53125 158.460938 L 225.105469 158.460938 L 225.105469 157.859375 L 225.707031 157.859375 L 225.707031 161.429688 L 228.082031 161.429688 L 228.082031 154.886719 L 228.683594 154.886719 L 228.683594 140 L 231.65625 140 L 231.65625 137.027344 L 232.257812 137.027344 L 232.257812 133.457031 L 228.683594 133.457031 L 228.683594 129.886719 L 225.105469 129.886719 L 225.105469 126.3125 L 224.503906 126.3125 L 224.503906 108.457031 L 225.105469 108.457031 L 225.105469 101.316406 L 228.683594 101.316406 L 228.683594 94.171875 L 232.257812 94.171875 L 232.257812 90.597656 L 231.65625 90.597656 L 231.65625 90 L 235.230469 90 L 235.230469 87.628906 L 222.132812 87.628906 L 222.132812 94.171875 L 221.53125 94.171875 L 221.53125 94.773438 L 214.980469 94.773438 L 214.980469 105.488281 L 211.40625 105.488281 L 211.40625 116.199219 L 203.054688 116.199219 L 203.054688 112.628906 L 192.332031 112.628906 L 192.332031 101.917969 L 182.804688 101.917969 L 182.804688 112.628906 L 172.078125 112.628906 L 172.078125 116.199219 L 163.726562 116.199219 L 163.726562 105.488281 L 160.15625 105.488281 L 160.15625 98.34375 L 157.179688 98.34375 L 157.179688 97.742188 L 156.582031 97.742188 L 156.582031 94.773438 L 153.605469 94.773438 L 153.605469 94.171875 L 153.003906 94.171875 L 153.003906 91.199219 L 150.03125 91.199219 L 150.03125 90.597656 L 149.429688 90.597656 L 149.429688 87.628906 L 139.90625 87.628906 L 139.90625 90 L 143.480469 90 L 143.480469 90.597656 L 142.878906 90.597656 L 142.878906 94.171875 L 146.453125 94.171875 L 146.453125 97.742188 L 150.03125 97.742188 L 150.03125 108.457031 L 150.628906 108.457031 L 150.628906 122.746094 L 150.03125 122.746094 L 150.03125 129.886719 L 146.453125 129.886719 L 146.453125 133.457031 L 142.878906 133.457031 L 142.878906 137.027344 L 143.480469 137.027344 L 143.480469 140 L 146.453125 140 L 146.453125 158.460938 L 147.054688 158.460938 L 147.054688 161.429688 L 150.628906 161.429688 L 150.628906 166.203125 L 147.054688 166.203125 L 147.054688 168.574219 L 150.628906 168.574219 L 150.628906 173.34375 L 147.054688 173.34375 L 147.054688 175.71875 L 150.628906 175.71875 L 150.628906 179.285156 L 154.203125 179.285156 L 154.203125 182.859375 L 157.78125 182.859375 L 157.78125 190 L 161.355469 190 L 161.355469 200.71875 L 164.929688 200.71875 L 164.929688 204.289062 L 170.878906 204.289062 L 170.878906 197.144531 L 175.65625 197.144531 L 175.65625 204.289062 L 179.230469 204.289062 L 179.230469 207.859375 L 186.382812 207.859375 L 186.382812 211.433594 L 188.753906 211.433594 L 188.753906 207.859375 L 195.90625 207.859375 Z M 224.503906 168.574219 L 224.503906 173.34375 L 228.082031 173.34375 L 228.082031 175.71875 L 224.503906 175.71875 L 224.503906 179.285156 L 222.132812 179.285156 L 222.132812 162.628906 L 224.503906 162.628906 L 224.503906 166.203125 L 228.082031 166.203125 L 228.082031 168.574219 Z M 196.503906 215.601562 L 200.078125 215.601562 L 200.078125 229.890625 L 196.503906 229.890625 L 196.503906 233.460938 L 189.355469 233.460938 L 189.355469 215.601562 L 192.933594 215.601562 L 192.933594 226.316406 L 196.503906 226.316406 Z M 182.203125 215.601562 L 185.78125 215.601562 L 185.78125 233.460938 L 178.628906 233.460938 L 178.628906 229.890625 L 175.058594 229.890625 L 175.058594 215.601562 L 178.628906 215.601562 L 178.628906 226.316406 L 182.203125 226.316406 Z M 211.40625 219.773438 L 206.628906 219.773438 L 206.628906 215 L 211.40625 215 Z M 239.40625 208.457031 L 214.382812 208.457031 L 214.382812 204.886719 L 210.808594 204.886719 L 210.808594 208.457031 L 207.230469 208.457031 L 207.230469 212.03125 L 207.832031 212.03125 L 207.832031 212.632812 L 204.257812 212.632812 L 204.257812 222.144531 L 213.78125 222.144531 L 213.78125 212.03125 L 246.554688 212.03125 L 246.554688 208.457031 L 239.40625 208.457031"/></g><path fill="#FFF" d="M 146.453125 158.460938 L 146.453125 162.03125 L 150.03125 162.03125 L 150.03125 158.460938 Z M 150.03125 165.601562 L 146.453125 165.601562 L 146.453125 169.171875 L 150.03125 169.171875 L 150.03125 172.742188 L 146.453125 172.742188 L 146.453125 176.316406 L 150.03125 176.316406 L 150.03125 179.886719 L 153.605469 179.886719 L 153.605469 162.03125 L 150.03125 162.03125 Z M 160.753906 162.03125 L 164.328125 162.03125 L 164.328125 154.886719 L 160.753906 154.886719 L 160.753906 147.746094 L 157.179688 147.746094 L 157.179688 158.460938 L 160.753906 158.460938 Z M 164.328125 183.460938 L 160.753906 183.460938 L 160.753906 187.03125 L 164.328125 187.03125 Z M 164.328125 179.886719 L 167.90625 179.886719 L 167.90625 204.886719 L 164.328125 204.886719 L 164.328125 201.316406 L 160.753906 201.316406 L 160.753906 194.175781 L 164.328125 194.175781 L 164.328125 190.601562 L 157.179688 190.601562 L 157.179688 165.601562 L 160.753906 165.601562 L 160.753906 172.742188 L 164.328125 172.742188 Z M 171.480469 151.316406 L 175.058594 151.316406 L 175.058594 147.746094 L 178.628906 147.746094 L 178.628906 119.171875 L 175.058594 119.171875 L 175.058594 122.746094 L 167.90625 122.746094 L 167.90625 126.3125 L 164.328125 126.3125 L 164.328125 129.886719 L 160.753906 129.886719 L 160.753906 137.027344 L 164.328125 137.027344 L 164.328125 147.746094 L 167.90625 147.746094 L 167.90625 151.316406 Z M 171.480469 172.742188 L 171.480469 176.316406 L 178.628906 176.316406 L 178.628906 172.742188 Z M 178.628906 154.886719 L 178.628906 165.601562 L 196.503906 165.601562 L 196.503906 151.316406 L 192.933594 151.316406 L 192.933594 147.746094 L 189.355469 147.746094 L 189.355469 158.460938 L 185.78125 158.460938 L 185.78125 147.746094 L 182.203125 147.746094 L 182.203125 151.316406 L 178.628906 151.316406 Z M 178.628906 197.746094 L 178.628906 201.316406 L 182.203125 201.316406 L 182.203125 197.746094 Z M 189.355469 119.171875 L 192.933594 119.171875 L 192.933594 101.316406 L 182.203125 101.316406 L 182.203125 119.171875 Z M 196.503906 201.316406 L 196.503906 197.746094 L 192.933594 197.746094 L 192.933594 201.316406 Z M 196.503906 172.742188 L 196.503906 176.316406 L 203.65625 176.316406 L 203.65625 172.742188 Z M 192.933594 187.03125 L 192.933594 183.460938 L 189.355469 183.460938 L 189.355469 187.03125 Z M 185.78125 187.03125 L 185.78125 183.460938 L 182.203125 183.460938 L 182.203125 187.03125 Z M 200.078125 179.886719 L 203.65625 179.886719 L 203.65625 187.03125 L 200.078125 187.03125 L 200.078125 190.601562 L 196.503906 190.601562 L 196.503906 194.175781 L 192.933594 194.175781 L 192.933594 190.601562 L 189.355469 190.601562 L 189.355469 194.175781 L 192.933594 194.175781 L 192.933594 197.746094 L 189.355469 197.746094 L 189.355469 201.316406 L 192.933594 201.316406 L 192.933594 204.886719 L 189.355469 204.886719 L 189.355469 212.03125 L 185.78125 212.03125 L 185.78125 204.886719 L 182.203125 204.886719 L 182.203125 201.316406 L 185.78125 201.316406 L 185.78125 197.746094 L 182.203125 197.746094 L 182.203125 194.175781 L 185.78125 194.175781 L 185.78125 190.601562 L 182.203125 190.601562 L 182.203125 194.175781 L 178.628906 194.175781 L 178.628906 190.601562 L 175.058594 190.601562 L 175.058594 187.03125 L 171.480469 187.03125 L 171.480469 179.886719 L 175.058594 179.886719 L 175.058594 183.460938 L 178.628906 183.460938 L 178.628906 179.886719 L 196.503906 179.886719 L 196.503906 183.460938 L 200.078125 183.460938 Z M 207.230469 147.746094 L 210.808594 147.746094 L 210.808594 137.027344 L 214.382812 137.027344 L 214.382812 129.886719 L 210.808594 129.886719 L 210.808594 126.3125 L 207.230469 126.3125 L 207.230469 122.746094 L 200.078125 122.746094 L 200.078125 119.171875 L 196.503906 119.171875 L 196.503906 147.746094 L 200.078125 147.746094 L 200.078125 151.316406 L 207.230469 151.316406 Z M 214.382812 151.316406 L 214.382812 154.886719 L 210.808594 154.886719 L 210.808594 162.03125 L 214.382812 162.03125 L 214.382812 158.460938 L 217.953125 158.460938 L 217.953125 147.746094 L 214.382812 147.746094 Z M 214.382812 183.460938 L 210.808594 183.460938 L 210.808594 187.03125 L 214.382812 187.03125 Z M 214.382812 165.601562 L 217.953125 165.601562 L 217.953125 190.601562 L 210.808594 190.601562 L 210.808594 194.175781 L 214.382812 194.175781 L 214.382812 201.316406 L 210.808594 201.316406 L 210.808594 204.886719 L 207.230469 204.886719 L 207.230469 176.316406 L 210.808594 176.316406 L 210.808594 172.742188 L 214.382812 172.742188 Z M 221.53125 165.601562 L 221.53125 179.886719 L 225.105469 179.886719 L 225.105469 176.316406 L 228.683594 176.316406 L 228.683594 172.742188 L 225.105469 172.742188 L 225.105469 169.171875 L 228.683594 169.171875 L 228.683594 165.601562 L 225.105469 165.601562 L 225.105469 162.03125 L 221.53125 162.03125 Z M 228.683594 154.886719 L 228.683594 162.03125 L 225.105469 162.03125 L 225.105469 154.886719 L 228.683594 154.886719"/><path fill="#513784" d="M 132.15625 201.316406 L 135.730469 201.316406 L 135.730469 197.746094 L 132.15625 197.746094 Z M 139.304688 201.316406 L 142.878906 201.316406 L 142.878906 197.746094 L 139.304688 197.746094 Z M 146.453125 137.027344 L 142.878906 137.027344 L 142.878906 140.601562 L 146.453125 140.601562 Z M 146.453125 201.316406 L 150.03125 201.316406 L 150.03125 197.746094 L 146.453125 197.746094 Z M 153.605469 119.171875 L 153.605469 108.457031 L 150.03125 108.457031 L 150.03125 122.746094 L 153.605469 122.746094 Z M 150.03125 158.460938 L 150.03125 162.03125 L 153.605469 162.03125 L 153.605469 158.460938 Z M 153.605469 165.601562 L 153.605469 183.460938 L 157.179688 183.460938 L 157.179688 162.03125 L 153.605469 162.03125 Z M 185.78125 122.746094 L 185.78125 126.3125 L 182.203125 126.3125 L 182.203125 144.171875 L 192.933594 144.171875 L 192.933594 126.3125 L 189.355469 126.3125 L 189.355469 122.746094 Z M 167.90625 122.746094 L 164.328125 122.746094 L 164.328125 115.601562 L 171.480469 115.601562 L 171.480469 112.03125 L 182.203125 112.03125 L 182.203125 119.171875 L 192.933594 119.171875 L 192.933594 112.03125 L 203.65625 112.03125 L 203.65625 115.601562 L 210.808594 115.601562 L 210.808594 122.746094 L 207.230469 122.746094 L 207.230469 119.171875 L 200.078125 119.171875 L 200.078125 115.601562 L 196.503906 115.601562 L 196.503906 147.746094 L 200.078125 147.746094 L 200.078125 151.316406 L 192.933594 151.316406 L 192.933594 147.746094 L 182.203125 147.746094 L 182.203125 151.316406 L 175.058594 151.316406 L 175.058594 147.746094 L 178.628906 147.746094 L 178.628906 115.601562 L 175.058594 115.601562 L 175.058594 119.171875 L 167.90625 119.171875 Z M 167.90625 215.601562 L 164.328125 215.601562 L 164.328125 219.171875 L 167.90625 219.171875 Z M 167.90625 212.03125 L 171.480469 212.03125 L 171.480469 222.746094 L 160.753906 222.746094 L 160.753906 212.03125 Z M 171.480469 179.886719 L 171.480469 176.316406 L 167.90625 176.316406 L 167.90625 169.171875 L 182.203125 169.171875 L 182.203125 165.601562 L 167.90625 165.601562 L 167.90625 158.460938 L 164.328125 158.460938 L 164.328125 165.601562 L 160.753906 165.601562 L 160.753906 172.742188 L 164.328125 172.742188 L 164.328125 179.886719 L 167.90625 179.886719 L 167.90625 187.03125 L 171.480469 187.03125 Z M 175.058594 183.460938 L 178.628906 183.460938 L 178.628906 179.886719 L 175.058594 179.886719 Z M 182.203125 201.316406 L 178.628906 201.316406 L 178.628906 197.746094 L 182.203125 197.746094 L 182.203125 194.175781 L 178.628906 194.175781 L 178.628906 190.601562 L 175.058594 190.601562 L 175.058594 187.03125 L 171.480469 187.03125 L 171.480469 197.746094 L 175.058594 197.746094 L 175.058594 204.886719 L 178.628906 204.886719 L 178.628906 208.457031 L 185.78125 208.457031 L 185.78125 204.886719 L 182.203125 204.886719 Z M 192.933594 179.886719 L 196.503906 179.886719 L 196.503906 176.316406 L 192.933594 176.316406 L 192.933594 172.742188 L 189.355469 172.742188 L 189.355469 176.316406 L 185.78125 176.316406 L 185.78125 172.742188 L 182.203125 172.742188 L 182.203125 176.316406 L 178.628906 176.316406 L 178.628906 179.886719 Z M 200.078125 183.460938 L 200.078125 179.886719 L 196.503906 179.886719 L 196.503906 183.460938 Z M 200.078125 190.601562 L 196.503906 190.601562 L 196.503906 194.175781 L 192.933594 194.175781 L 192.933594 197.746094 L 196.503906 197.746094 L 196.503906 201.316406 L 192.933594 201.316406 L 192.933594 204.886719 L 189.355469 204.886719 L 189.355469 208.457031 L 196.503906 208.457031 L 196.503906 204.886719 L 200.078125 204.886719 L 200.078125 197.746094 L 203.65625 197.746094 L 203.65625 187.03125 L 200.078125 187.03125 Z M 203.65625 179.886719 L 203.65625 187.03125 L 207.230469 187.03125 L 207.230469 176.316406 L 203.65625 176.316406 Z M 210.808594 162.03125 L 210.808594 158.460938 L 207.230469 158.460938 L 207.230469 165.601562 L 192.933594 165.601562 L 192.933594 169.171875 L 207.230469 169.171875 L 207.230469 176.316406 L 210.808594 176.316406 L 210.808594 172.742188 L 214.382812 172.742188 L 214.382812 165.601562 L 210.808594 165.601562 Z M 210.808594 215.601562 L 207.230469 215.601562 L 207.230469 219.171875 L 210.808594 219.171875 Z M 210.808594 212.03125 L 214.382812 212.03125 L 214.382812 222.746094 L 203.65625 222.746094 L 203.65625 212.03125 Z M 225.105469 122.746094 L 225.105469 108.457031 L 221.53125 108.457031 L 221.53125 126.3125 L 225.105469 126.3125 Z M 225.105469 201.316406 L 228.683594 201.316406 L 228.683594 197.746094 L 225.105469 197.746094 Z M 232.257812 137.027344 L 228.683594 137.027344 L 228.683594 140.601562 L 232.257812 140.601562 Z M 232.257812 201.316406 L 235.832031 201.316406 L 235.832031 197.746094 L 232.257812 197.746094 Z M 242.980469 197.746094 L 242.980469 201.316406 L 239.40625 201.316406 L 239.40625 197.746094 L 242.980469 197.746094"/><g clip-path="url(#c)"><path fill="#FF1616" d="M 150.03125 87.03125 L 150.03125 90.597656 L 139.304688 90.597656 L 139.304688 87.03125 Z M 153.605469 90.597656 L 153.605469 94.171875 L 150.03125 94.171875 L 150.03125 90.597656 Z M 146.453125 201.316406 L 146.453125 197.746094 L 150.03125 197.746094 L 150.03125 201.316406 Z M 139.304688 201.316406 L 139.304688 197.746094 L 142.878906 197.746094 L 142.878906 201.316406 Z M 132.15625 201.316406 L 132.15625 197.746094 L 135.730469 197.746094 L 135.730469 201.316406 Z M 150.03125 194.175781 L 125.003906 194.175781 L 125.003906 201.316406 L 117.851562 201.316406 L 117.851562 204.886719 L 157.179688 204.886719 L 157.179688 194.175781 Z M 157.179688 94.171875 L 157.179688 97.742188 L 153.605469 97.742188 L 153.605469 94.171875 Z M 160.753906 104.886719 L 164.328125 104.886719 L 164.328125 126.3125 L 160.753906 126.3125 L 160.753906 108.457031 L 157.179688 108.457031 L 157.179688 97.742188 L 160.753906 97.742188 Z M 157.179688 126.3125 L 160.753906 126.3125 L 160.753906 129.886719 L 157.179688 129.886719 Z M 160.753906 183.460938 L 164.328125 183.460938 L 164.328125 187.03125 L 160.753906 187.03125 Z M 160.753906 190.601562 L 164.328125 190.601562 L 164.328125 194.175781 L 160.753906 194.175781 Z M 167.90625 187.03125 L 171.480469 187.03125 L 171.480469 204.886719 L 167.90625 204.886719 Z M 189.355469 126.3125 L 185.78125 126.3125 L 185.78125 122.746094 L 189.355469 122.746094 Z M 189.355469 126.3125 L 192.933594 126.3125 L 192.933594 144.171875 L 182.203125 144.171875 L 182.203125 126.3125 L 185.78125 126.3125 L 185.78125 133.457031 L 189.355469 133.457031 Z M 203.65625 187.03125 L 207.230469 187.03125 L 207.230469 204.886719 L 203.65625 204.886719 Z M 214.382812 122.746094 L 214.382812 126.3125 L 210.808594 126.3125 L 210.808594 104.886719 L 214.382812 104.886719 L 214.382812 94.171875 L 221.53125 94.171875 L 221.53125 97.742188 L 217.953125 97.742188 L 217.953125 108.457031 L 214.382812 108.457031 Z M 210.808594 183.460938 L 214.382812 183.460938 L 214.382812 187.03125 L 210.808594 187.03125 Z M 210.808594 190.601562 L 214.382812 190.601562 L 214.382812 194.175781 L 210.808594 194.175781 Z M 214.382812 129.886719 L 214.382812 126.3125 L 217.953125 126.3125 L 217.953125 129.886719 Z M 225.105469 94.171875 L 221.53125 94.171875 L 221.53125 87.03125 L 235.832031 87.03125 L 235.832031 90.597656 L 225.105469 90.597656 Z M 239.40625 201.316406 L 239.40625 197.746094 L 242.980469 197.746094 L 242.980469 201.316406 Z M 232.257812 201.316406 L 232.257812 197.746094 L 235.832031 197.746094 L 235.832031 201.316406 Z M 225.105469 201.316406 L 225.105469 197.746094 L 228.683594 197.746094 L 228.683594 201.316406 Z M 253.707031 201.316406 L 250.132812 201.316406 L 250.132812 194.175781 L 217.953125 194.175781 L 217.953125 204.886719 L 257.285156 204.886719 L 257.285156 201.316406 L 253.707031 201.316406"/></g><g fill="#090909"><g><g><path d="M 20.359375 -13.359375 C 20.359375 -12.179688 20.039062 -11.113281 19.40625 -10.15625 C 18.769531 -9.207031 17.84375 -8.507812 16.625 -8.0625 L 20.921875 0 L 13.96875 0 L 10.5625 -7.03125 L 8.265625 -7.03125 L 8.265625 0 L 2.078125 0 L 2.078125 -19.265625 L 13.859375 -19.265625 C 15.242188 -19.265625 16.425781 -19 17.40625 -18.46875 C 18.382812 -17.9375 19.117188 -17.21875 19.609375 -16.3125 C 20.109375 -15.40625 20.359375 -14.421875 20.359375 -13.359375 Z M 14.0625 -13.109375 C 14.0625 -13.609375 13.890625 -14.023438 13.546875 -14.359375 C 13.210938 -14.703125 12.800781 -14.875 12.3125 -14.875 L 8.265625 -14.875 L 8.265625 -11.3125 L 12.3125 -11.3125 C 12.800781 -11.3125 13.210938 -11.484375 13.546875 -11.828125 C 13.890625 -12.171875 14.0625 -12.597656 14.0625 -13.109375 Z M 14.0625 -13.109375" transform="translate(112.852 262.73)"/></g></g></g><g fill="#090909"><g><g><path d="M 2.078125 -19.265625 L 18.734375 -19.265625 L 18.734375 -14.640625 L 8.265625 -14.640625 L 8.265625 -11.984375 L 17.21875 -11.984375 L 17.21875 -7.5625 L 8.265625 -7.5625 L 8.265625 -4.625 L 18.921875 -4.625 L 18.921875 0 L 2.078125 0 Z M 2.078125 -19.265625" transform="translate(134.633 262.73)"/></g></g></g><g fill="#090909"><g><g><path d="M 7.3125 0 L 0.46875 -19.265625 L 7.078125 -19.265625 L 10.953125 -6.390625 L 11.0625 -6.390625 L 14.953125 -19.265625 L 21.28125 -19.265625 L 14.46875 0 Z M 7.3125 0" transform="translate(154.846 262.73)"/></g></g></g><g fill="#090909"><g><g><path d="M 2.078125 -19.265625 L 18.734375 -19.265625 L 18.734375 -14.640625 L 8.265625 -14.640625 L 8.265625 -11.984375 L 17.21875 -11.984375 L 17.21875 -7.5625 L 8.265625 -7.5625 L 8.265625 -4.625 L 18.921875 -4.625 L 18.921875 0 L 2.078125 0 Z M 2.078125 -19.265625" transform="translate(176.627 262.73)"/></g></g></g><g fill="#090909"><g><g><path d="M 20.359375 -13.359375 C 20.359375 -12.179688 20.039062 -11.113281 19.40625 -10.15625 C 18.769531 -9.207031 17.84375 -8.507812 16.625 -8.0625 L 20.921875 0 L 13.96875 0 L 10.5625 -7.03125 L 8.265625 -7.03125 L 8.265625 0 L 2.078125 0 L 2.078125 -19.265625 L 13.859375 -19.265625 C 15.242188 -19.265625 16.425781 -19 17.40625 -18.46875 C 18.382812 -17.9375 19.117188 -17.21875 19.609375 -16.3125 C 20.109375 -15.40625 20.359375 -14.421875 20.359375 -13.359375 Z M 14.0625 -13.109375 C 14.0625 -13.609375 13.890625 -14.023438 13.546875 -14.359375 C 13.210938 -14.703125 12.800781 -14.875 12.3125 -14.875 L 8.265625 -14.875 L 8.265625 -11.3125 L 12.3125 -11.3125 C 12.800781 -11.3125 13.210938 -11.484375 13.546875 -11.828125 C 13.890625 -12.171875 14.0625 -12.597656 14.0625 -13.109375 Z M 14.0625 -13.109375" transform="translate(196.84 262.73)"/></g></g></g><g fill="#090909"><g><g><path d="M 10.15625 -19.59375 C 12.625 -19.59375 14.648438 -19.09375 16.234375 -18.09375 C 17.828125 -17.101562 18.640625 -15.625 18.671875 -13.65625 L 18.671875 -13.328125 L 12.875 -13.328125 L 12.875 -13.4375 C 12.875 -14 12.664062 -14.46875 12.25 -14.84375 C 11.84375 -15.21875 11.222656 -15.40625 10.390625 -15.40625 C 9.566406 -15.40625 8.9375 -15.28125 8.5 -15.03125 C 8.0625 -14.789062 7.84375 -14.492188 7.84375 -14.140625 C 7.84375 -13.640625 8.140625 -13.265625 8.734375 -13.015625 C 9.328125 -12.773438 10.289062 -12.523438 11.625 -12.265625 C 13.164062 -11.941406 14.4375 -11.609375 15.4375 -11.265625 C 16.4375 -10.921875 17.3125 -10.359375 18.0625 -9.578125 C 18.8125 -8.796875 19.191406 -7.734375 19.203125 -6.390625 C 19.203125 -4.109375 18.429688 -2.414062 16.890625 -1.3125 C 15.359375 -0.207031 13.300781 0.34375 10.71875 0.34375 C 7.71875 0.34375 5.378906 -0.160156 3.703125 -1.171875 C 2.035156 -2.179688 1.203125 -3.96875 1.203125 -6.53125 L 7.0625 -6.53125 C 7.0625 -5.550781 7.3125 -4.898438 7.8125 -4.578125 C 8.3125 -4.253906 9.09375 -4.09375 10.15625 -4.09375 C 10.945312 -4.09375 11.597656 -4.175781 12.109375 -4.34375 C 12.617188 -4.507812 12.875 -4.851562 12.875 -5.375 C 12.875 -5.84375 12.585938 -6.191406 12.015625 -6.421875 C 11.453125 -6.660156 10.523438 -6.910156 9.234375 -7.171875 C 7.671875 -7.503906 6.375 -7.851562 5.34375 -8.21875 C 4.320312 -8.582031 3.425781 -9.179688 2.65625 -10.015625 C 1.894531 -10.859375 1.515625 -12 1.515625 -13.4375 C 1.515625 -15.550781 2.328125 -17.101562 3.953125 -18.09375 C 5.585938 -19.09375 7.65625 -19.59375 10.15625 -19.59375 Z M 10.15625 -19.59375" transform="translate(218.621 262.73)"/></g></g></g><g fill="#090909"><g><g><path d="M 11.640625 -19.59375 C 14.960938 -19.59375 17.53125 -18.742188 19.34375 -17.046875 C 21.15625 -15.347656 22.0625 -12.875 22.0625 -9.625 C 22.0625 -6.382812 21.15625 -3.910156 19.34375 -2.203125 C 17.53125 -0.503906 14.960938 0.34375 11.640625 0.34375 C 8.316406 0.34375 5.753906 -0.5 3.953125 -2.1875 C 2.160156 -3.882812 1.265625 -6.363281 1.265625 -9.625 C 1.265625 -12.894531 2.160156 -15.375 3.953125 -17.0625 C 5.753906 -18.75 8.316406 -19.59375 11.640625 -19.59375 Z M 11.640625 -14.984375 C 10.316406 -14.984375 9.3125 -14.582031 8.625 -13.78125 C 7.9375 -12.976562 7.59375 -11.894531 7.59375 -10.53125 L 7.59375 -8.734375 C 7.59375 -7.367188 7.9375 -6.285156 8.625 -5.484375 C 9.3125 -4.679688 10.316406 -4.28125 11.640625 -4.28125 C 12.972656 -4.28125 13.988281 -4.679688 14.6875 -5.484375 C 15.382812 -6.285156 15.734375 -7.367188 15.734375 -8.734375 L 15.734375 -10.53125 C 15.734375 -11.894531 15.382812 -12.976562 14.6875 -13.78125 C 13.988281 -14.582031 12.972656 -14.984375 11.640625 -14.984375 Z M 11.640625 -14.984375" transform="translate(238.834 262.73)"/></g></g></g><g fill="#090909"><g><g><path d="M 4.046875 0.125 C 3.335938 0.125 2.65625 0.0234375 2 -0.171875 C 1.351562 -0.367188 0.835938 -0.632812 0.453125 -0.96875 L 1.046875 -2.28125 C 1.410156 -1.976562 1.863281 -1.734375 2.40625 -1.546875 C 2.945312 -1.367188 3.492188 -1.28125 4.046875 -1.28125 C 4.722656 -1.28125 5.226562 -1.382812 5.5625 -1.59375 C 5.894531 -1.8125 6.0625 -2.097656 6.0625 -2.453125 C 6.0625 -2.710938 5.96875 -2.925781 5.78125 -3.09375 C 5.59375 -3.269531 5.351562 -3.40625 5.0625 -3.5 C 4.78125 -3.59375 4.394531 -3.703125 3.90625 -3.828125 C 3.207031 -3.984375 2.644531 -4.144531 2.21875 -4.3125 C 1.789062 -4.476562 1.421875 -4.734375 1.109375 -5.078125 C 0.804688 -5.429688 0.65625 -5.910156 0.65625 -6.515625 C 0.65625 -7.015625 0.789062 -7.46875 1.0625 -7.875 C 1.332031 -8.289062 1.742188 -8.617188 2.296875 -8.859375 C 2.847656 -9.109375 3.519531 -9.234375 4.3125 -9.234375 C 4.863281 -9.234375 5.410156 -9.160156 5.953125 -9.015625 C 6.492188 -8.878906 6.957031 -8.679688 7.34375 -8.421875 L 6.8125 -7.109375 C 6.414062 -7.347656 6 -7.523438 5.5625 -7.640625 C 5.125 -7.765625 4.703125 -7.828125 4.296875 -7.828125 C 3.628906 -7.828125 3.132812 -7.710938 2.8125 -7.484375 C 2.488281 -7.265625 2.328125 -6.96875 2.328125 -6.59375 C 2.328125 -6.332031 2.421875 -6.117188 2.609375 -5.953125 C 2.796875 -5.785156 3.03125 -5.65625 3.3125 -5.5625 C 3.601562 -5.46875 3.992188 -5.359375 4.484375 -5.234375 C 5.160156 -5.078125 5.710938 -4.914062 6.140625 -4.75 C 6.578125 -4.582031 6.945312 -4.320312 7.25 -3.96875 C 7.5625 -3.625 7.71875 -3.160156 7.71875 -2.578125 C 7.71875 -2.066406 7.582031 -1.609375 7.3125 -1.203125 C 7.039062 -0.796875 6.625 -0.472656 6.0625 -0.234375 C 5.507812 0.00390625 4.835938 0.125 4.046875 0.125 Z M 4.046875 0.125" transform="translate(106.265 284.993)"/></g></g></g><g fill="#090909"><g><g><path d="M 3.0625 -7.671875 L 0.046875 -7.671875 L 0.046875 -9.09375 L 7.78125 -9.09375 L 7.78125 -7.671875 L 4.765625 -7.671875 L 4.765625 0 L 3.0625 0 Z M 3.0625 -7.671875" transform="translate(117.04 284.993)"/></g></g></g><g fill="#090909"><g><g><path d="M 7.171875 0 L 5.3125 -2.671875 C 5.238281 -2.660156 5.125 -2.65625 4.96875 -2.65625 L 2.90625 -2.65625 L 2.90625 0 L 1.21875 0 L 1.21875 -9.09375 L 4.96875 -9.09375 C 5.757812 -9.09375 6.445312 -8.960938 7.03125 -8.703125 C 7.613281 -8.441406 8.0625 -8.066406 8.375 -7.578125 C 8.6875 -7.097656 8.84375 -6.523438 8.84375 -5.859375 C 8.84375 -5.179688 8.675781 -4.59375 8.34375 -4.09375 C 8.007812 -3.601562 7.53125 -3.234375 6.90625 -2.984375 L 9 0 Z M 7.140625 -5.859375 C 7.140625 -6.441406 6.945312 -6.890625 6.5625 -7.203125 C 6.1875 -7.515625 5.628906 -7.671875 4.890625 -7.671875 L 2.90625 -7.671875 L 2.90625 -4.046875 L 4.890625 -4.046875 C 5.628906 -4.046875 6.1875 -4.203125 6.5625 -4.515625 C 6.945312 -4.828125 7.140625 -5.273438 7.140625 -5.859375 Z M 7.140625 -5.859375" transform="translate(127.463 284.993)"/></g></g></g><g fill="#090909"><g><g><path d="M 1.21875 -9.09375 L 2.90625 -9.09375 L 2.90625 0 L 1.21875 0 Z M 1.21875 -9.09375" transform="translate(139.563 284.993)"/></g></g></g><g fill="#090909"><g><g><path d="M 9.3125 -9.09375 L 9.3125 0 L 7.921875 0 L 2.90625 -6.15625 L 2.90625 0 L 1.21875 0 L 1.21875 -9.09375 L 2.609375 -9.09375 L 7.625 -2.9375 L 7.625 -9.09375 Z M 9.3125 -9.09375" transform="translate(146.309 284.993)"/></g></g></g><g fill="#090909"><g><g><path d="M 7.4375 -4.65625 L 9.03125 -4.65625 L 9.03125 -1.03125 C 8.5625 -0.65625 8.015625 -0.367188 7.390625 -0.171875 C 6.773438 0.0234375 6.132812 0.125 5.46875 0.125 C 4.539062 0.125 3.703125 -0.0703125 2.953125 -0.46875 C 2.210938 -0.875 1.628906 -1.429688 1.203125 -2.140625 C 0.785156 -2.859375 0.578125 -3.660156 0.578125 -4.546875 C 0.578125 -5.441406 0.785156 -6.242188 1.203125 -6.953125 C 1.628906 -7.660156 2.21875 -8.21875 2.96875 -8.625 C 3.71875 -9.03125 4.5625 -9.234375 5.5 -9.234375 C 6.257812 -9.234375 6.953125 -9.101562 7.578125 -8.84375 C 8.203125 -8.59375 8.726562 -8.226562 9.15625 -7.75 L 8.09375 -6.703125 C 7.394531 -7.398438 6.554688 -7.75 5.578125 -7.75 C 4.929688 -7.75 4.359375 -7.613281 3.859375 -7.34375 C 3.367188 -7.070312 2.984375 -6.691406 2.703125 -6.203125 C 2.421875 -5.722656 2.28125 -5.171875 2.28125 -4.546875 C 2.28125 -3.941406 2.421875 -3.394531 2.703125 -2.90625 C 2.984375 -2.425781 3.367188 -2.046875 3.859375 -1.765625 C 4.359375 -1.492188 4.925781 -1.359375 5.5625 -1.359375 C 6.269531 -1.359375 6.894531 -1.507812 7.4375 -1.8125 Z M 7.4375 -4.65625" transform="translate(159.435 284.993)"/></g></g></g><g fill="#090909"><g><g><path d="M 7.171875 0 L 5.3125 -2.671875 C 5.238281 -2.660156 5.125 -2.65625 4.96875 -2.65625 L 2.90625 -2.65625 L 2.90625 0 L 1.21875 0 L 1.21875 -9.09375 L 4.96875 -9.09375 C 5.757812 -9.09375 6.445312 -8.960938 7.03125 -8.703125 C 7.613281 -8.441406 8.0625 -8.066406 8.375 -7.578125 C 8.6875 -7.097656 8.84375 -6.523438 8.84375 -5.859375 C 8.84375 -5.179688 8.675781 -4.59375 8.34375 -4.09375 C 8.007812 -3.601562 7.53125 -3.234375 6.90625 -2.984375 L 9 0 Z M 7.140625 -5.859375 C 7.140625 -6.441406 6.945312 -6.890625 6.5625 -7.203125 C 6.1875 -7.515625 5.628906 -7.671875 4.890625 -7.671875 L 2.90625 -7.671875 L 2.90625 -4.046875 L 4.890625 -4.046875 C 5.628906 -4.046875 6.1875 -4.203125 6.5625 -4.515625 C 6.945312 -4.828125 7.140625 -5.273438 7.140625 -5.859375 Z M 7.140625 -5.859375" transform="translate(178.255 284.993)"/></g></g></g><g fill="#090909"><g><g><path d="M 8.046875 -1.421875 L 8.046875 0 L 1.21875 0 L 1.21875 -9.09375 L 7.859375 -9.09375 L 7.859375 -7.6875 L 2.90625 -7.6875 L 2.90625 -5.3125 L 7.3125 -5.3125 L 7.3125 -3.921875 L 2.90625 -3.921875 L 2.90625 -1.421875 Z M 8.046875 -1.421875" transform="translate(190.355 284.993)"/></g></g></g><g fill="#090909"><g><g><path d="M 9.546875 -9.09375 L 5.578125 0 L 3.90625 0 L -0.0625 -9.09375 L 1.765625 -9.09375 L 4.796875 -2.078125 L 7.859375 -9.09375 Z M 9.546875 -9.09375" transform="translate(201.663 284.993)"/></g></g></g><g fill="#090909"><g><g><path d="M 8.046875 -1.421875 L 8.046875 0 L 1.21875 0 L 1.21875 -9.09375 L 7.859375 -9.09375 L 7.859375 -7.6875 L 2.90625 -7.6875 L 2.90625 -5.3125 L 7.3125 -5.3125 L 7.3125 -3.921875 L 2.90625 -3.921875 L 2.90625 -1.421875 Z M 8.046875 -1.421875" transform="translate(213.737 284.993)"/></g></g></g><g fill="#090909"><g><g><path d="M 7.171875 0 L 5.3125 -2.671875 C 5.238281 -2.660156 5.125 -2.65625 4.96875 -2.65625 L 2.90625 -2.65625 L 2.90625 0 L 1.21875 0 L 1.21875 -9.09375 L 4.96875 -9.09375 C 5.757812 -9.09375 6.445312 -8.960938 7.03125 -8.703125 C 7.613281 -8.441406 8.0625 -8.066406 8.375 -7.578125 C 8.6875 -7.097656 8.84375 -6.523438 8.84375 -5.859375 C 8.84375 -5.179688 8.675781 -4.59375 8.34375 -4.09375 C 8.007812 -3.601562 7.53125 -3.234375 6.90625 -2.984375 L 9 0 Z M 7.140625 -5.859375 C 7.140625 -6.441406 6.945312 -6.890625 6.5625 -7.203125 C 6.1875 -7.515625 5.628906 -7.671875 4.890625 -7.671875 L 2.90625 -7.671875 L 2.90625 -4.046875 L 4.890625 -4.046875 C 5.628906 -4.046875 6.1875 -4.203125 6.5625 -4.515625 C 6.945312 -4.828125 7.140625 -5.273438 7.140625 -5.859375 Z M 7.140625 -5.859375" transform="translate(225.044 284.993)"/></g></g></g><g fill="#090909"><g><g><path d="M 4.046875 0.125 C 3.335938 0.125 2.65625 0.0234375 2 -0.171875 C 1.351562 -0.367188 0.835938 -0.632812 0.453125 -0.96875 L 1.046875 -2.28125 C 1.410156 -1.976562 1.863281 -1.734375 2.40625 -1.546875 C 2.945312 -1.367188 3.492188 -1.28125 4.046875 -1.28125 C 4.722656 -1.28125 5.226562 -1.382812 5.5625 -1.59375 C 5.894531 -1.8125 6.0625 -2.097656 6.0625 -2.453125 C 6.0625 -2.710938 5.96875 -2.925781 5.78125 -3.09375 C 5.59375 -3.269531 5.351562 -3.40625 5.0625 -3.5 C 4.78125 -3.59375 4.394531 -3.703125 3.90625 -3.828125 C 3.207031 -3.984375 2.644531 -4.144531 2.21875 -4.3125 C 1.789062 -4.476562 1.421875 -4.734375 1.109375 -5.078125 C 0.804688 -5.429688 0.65625 -5.910156 0.65625 -6.515625 C 0.65625 -7.015625 0.789062 -7.46875 1.0625 -7.875 C 1.332031 -8.289062 1.742188 -8.617188 2.296875 -8.859375 C 2.847656 -9.109375 3.519531 -9.234375 4.3125 -9.234375 C 4.863281 -9.234375 5.410156 -9.160156 5.953125 -9.015625 C 6.492188 -8.878906 6.957031 -8.679688 7.34375 -8.421875 L 6.8125 -7.109375 C 6.414062 -7.347656 6 -7.523438 5.5625 -7.640625 C 5.125 -7.765625 4.703125 -7.828125 4.296875 -7.828125 C 3.628906 -7.828125 3.132812 -7.710938 2.8125 -7.484375 C 2.488281 -7.265625 2.328125 -6.96875 2.328125 -6.59375 C 2.328125 -6.332031 2.421875 -6.117188 2.609375 -5.953125 C 2.796875 -5.785156 3.03125 -5.65625 3.3125 -5.5625 C 3.601562 -5.46875 3.992188 -5.359375 4.484375 -5.234375 C 5.160156 -5.078125 5.710938 -4.914062 6.140625 -4.75 C 6.578125 -4.582031 6.945312 -4.320312 7.25 -3.96875 C 7.5625 -3.625 7.71875 -3.160156 7.71875 -2.578125 C 7.71875 -2.066406 7.582031 -1.609375 7.3125 -1.203125 C 7.039062 -0.796875 6.625 -0.472656 6.0625 -0.234375 C 5.507812 0.00390625 4.835938 0.125 4.046875 0.125 Z M 4.046875 0.125" transform="translate(237.144 284.993)"/></g></g></g><g fill="#090909"><g><g><path d="M 8.046875 -1.421875 L 8.046875 0 L 1.21875 0 L 1.21875 -9.09375 L 7.859375 -9.09375 L 7.859375 -7.6875 L 2.90625 -7.6875 L 2.90625 -5.3125 L 7.3125 -5.3125 L 7.3125 -3.921875 L 2.90625 -3.921875 L 2.90625 -1.421875 Z M 8.046875 -1.421875" transform="translate(247.919 284.993)"/></g></g></g><g fill="#090909"><g><g><path d="M 7.171875 0 L 5.3125 -2.671875 C 5.238281 -2.660156 5.125 -2.65625 4.96875 -2.65625 L 2.90625 -2.65625 L 2.90625 0 L 1.21875 0 L 1.21875 -9.09375 L 4.96875 -9.09375 C 5.757812 -9.09375 6.445312 -8.960938 7.03125 -8.703125 C 7.613281 -8.441406 8.0625 -8.066406 8.375 -7.578125 C 8.6875 -7.097656 8.84375 -6.523438 8.84375 -5.859375 C 8.84375 -5.179688 8.675781 -4.59375 8.34375 -4.09375 C 8.007812 -3.601562 7.53125 -3.234375 6.90625 -2.984375 L 9 0 Z M 7.140625 -5.859375 C 7.140625 -6.441406 6.945312 -6.890625 6.5625 -7.203125 C 6.1875 -7.515625 5.628906 -7.671875 4.890625 -7.671875 L 2.90625 -7.671875 L 2.90625 -4.046875 L 4.890625 -4.046875 C 5.628906 -4.046875 6.1875 -4.203125 6.5625 -4.515625 C 6.945312 -4.828125 7.140625 -5.273438 7.140625 -5.859375 Z M 7.140625 -5.859375" transform="translate(259.226 284.993)"/></g></g></g></svg>