<svg xmlns="http://www.w3.org/2000/svg" width="375" viewBox="0 0 375 375" height="375" version="1.0"><defs><clipPath id="a"><path d="M 20.421875 9.011719 L 354.742188 9.011719 L 354.742188 367.574219 L 20.421875 367.574219 Z M 20.421875 9.011719"/></clipPath><clipPath id="b"><path d="M 20.421875 7.574219 L 354.742188 7.574219 L 354.742188 290.53125 L 20.421875 290.53125 Z M 20.421875 7.574219"/></clipPath></defs><g clip-path="url(#a)"><path d="M 354.742188 290.433594 L 354.742188 299 L 327.574219 299 L 327.574219 306.140625 L 293.292969 306.140625 L 293.292969 307.578125 L 294.730469 307.578125 L 294.730469 316.144531 L 286.164062 316.144531 L 286.164062 324.714844 L 260.441406 324.714844 L 260.441406 341.859375 L 226.15625 341.859375 L 226.15625 359.007812 L 209.011719 359.007812 L 209.011719 357.566406 L 207.570312 357.566406 L 207.570312 359.007812 L 209.011719 359.007812 L 209.011719 367.574219 L 166.148438 367.574219 L 166.148438 359.007812 L 167.589844 359.007812 L 167.589844 357.566406 L 166.148438 357.566406 L 166.148438 359.007812 L 149.003906 359.007812 L 149.003906 341.859375 L 114.71875 341.859375 L 114.71875 324.714844 L 89 324.714844 L 89 316.144531 L 80.429688 316.144531 L 80.429688 307.578125 L 81.867188 307.578125 L 81.867188 306.140625 L 47.585938 306.140625 L 47.585938 299 L 20.421875 299 L 20.421875 290.433594 L 21.863281 290.433594 L 21.863281 283.304688 L 30.441406 283.304688 L 30.441406 281.863281 L 29 281.863281 L 29 273.289062 L 37.566406 273.289062 L 37.566406 274.730469 L 39.007812 274.730469 L 39.007812 266.160156 L 107.585938 266.160156 L 107.585938 264.71875 L 106.144531 264.71875 L 106.144531 247.574219 L 97.574219 247.574219 L 97.574219 239.007812 L 80.429688 239.007812 L 80.429688 136.144531 L 81.867188 136.144531 L 81.867188 120.441406 L 90.4375 120.441406 L 90.4375 111.875 L 99.015625 111.875 L 99.015625 31.847656 L 90.4375 31.847656 L 90.4375 23.277344 L 81.867188 23.277344 L 81.867188 14.699219 L 73.300781 14.699219 L 73.300781 9.011719 L 96.132812 9.011719 L 96.132812 17.578125 L 104.703125 17.578125 L 104.703125 26.15625 L 113.28125 26.15625 L 113.28125 34.726562 L 121.851562 34.726562 L 121.851562 51.871094 L 130.417969 51.871094 L 130.417969 77.585938 L 150.445312 77.585938 L 150.445312 69.015625 L 176.15625 69.015625 L 176.15625 43.304688 L 199.003906 43.304688 L 199.003906 69.015625 L 224.714844 69.015625 L 224.714844 77.585938 L 244.742188 77.585938 L 244.742188 51.871094 L 253.3125 51.871094 L 253.3125 26.15625 L 270.457031 26.15625 L 270.457031 9.011719 L 301.863281 9.011719 L 301.863281 14.699219 L 293.292969 14.699219 L 293.292969 23.277344 L 284.726562 23.277344 L 284.726562 40.421875 L 276.144531 40.421875 L 276.144531 111.875 L 284.726562 111.875 L 284.726562 120.441406 L 293.292969 120.441406 L 293.292969 136.144531 L 294.730469 136.144531 L 294.730469 239.007812 L 269.019531 239.007812 L 269.019531 264.71875 L 267.578125 264.71875 L 267.578125 266.160156 L 336.15625 266.160156 L 336.15625 274.730469 L 337.59375 274.730469 L 337.59375 273.289062 L 346.164062 273.289062 L 346.164062 281.863281 L 344.722656 281.863281 L 344.722656 283.304688 L 353.300781 283.304688 L 353.300781 290.433594 L 354.742188 290.433594"/></g><path fill="#FFBD59" d="M 353.300781 283.304688 L 353.300781 288.996094 L 261.878906 288.996094 L 261.878906 266.160156 L 336.15625 266.160156 L 336.15625 283.304688 Z M 113.28125 288.996094 L 21.863281 288.996094 L 21.863281 283.304688 L 39.007812 283.304688 L 39.007812 266.160156 L 113.28125 266.160156 Z M 141.875 314.707031 L 141.875 326.15625 L 130.417969 326.15625 L 130.417969 314.707031 Z M 138.996094 307.578125 L 140.4375 307.578125 L 140.4375 299 L 123.289062 299 L 123.289062 290.433594 L 114.71875 290.433594 L 114.71875 299 L 46.148438 299 L 46.148438 307.578125 L 124.730469 307.578125 L 124.730469 331.851562 L 147.5625 331.851562 L 147.5625 309.019531 L 138.996094 309.019531 Z M 201.882812 249.015625 L 190.425781 249.015625 L 190.425781 237.566406 L 201.882812 237.566406 Z M 201.882812 266.160156 L 190.425781 266.160156 L 190.425781 254.703125 L 201.882812 254.703125 Z M 201.882812 283.304688 L 190.425781 283.304688 L 190.425781 271.847656 L 201.882812 271.847656 Z M 181.855469 223.304688 L 181.855469 214.726562 L 176.15625 214.726562 L 176.15625 223.304688 L 167.589844 223.304688 L 167.589844 231.871094 L 147.5625 231.871094 L 147.5625 223.304688 L 138.996094 223.304688 L 138.996094 211.847656 L 140.4375 211.847656 L 140.4375 213.289062 L 150.445312 213.289062 L 150.445312 220.421875 L 164.710938 220.421875 L 164.710938 213.289062 L 174.71875 213.289062 L 174.71875 204.71875 L 173.277344 204.71875 L 173.277344 194.707031 L 201.882812 194.707031 L 201.882812 204.71875 L 200.441406 204.71875 L 200.441406 213.289062 L 210.449219 213.289062 L 210.449219 220.421875 L 224.714844 220.421875 L 224.714844 213.289062 L 234.726562 213.289062 L 234.726562 211.847656 L 236.167969 211.847656 L 236.167969 223.304688 L 227.597656 223.304688 L 227.597656 231.871094 L 207.570312 231.871094 L 207.570312 223.304688 L 199.003906 223.304688 L 199.003906 214.726562 L 193.308594 214.726562 L 193.308594 223.304688 Z M 184.738281 249.015625 L 173.277344 249.015625 L 173.277344 237.566406 L 184.738281 237.566406 Z M 184.738281 266.160156 L 173.277344 266.160156 L 173.277344 254.703125 L 184.738281 254.703125 Z M 184.738281 283.304688 L 173.277344 283.304688 L 173.277344 271.847656 L 184.738281 271.847656 Z M 156.144531 196.148438 L 157.582031 196.148438 L 157.582031 161.859375 L 156.144531 161.859375 L 156.144531 160.417969 L 167.589844 160.417969 L 167.589844 197.589844 L 156.144531 197.589844 Z M 130.417969 91.847656 L 138.996094 91.847656 L 138.996094 83.269531 L 156.144531 83.269531 L 156.144531 74.703125 L 167.589844 74.703125 L 167.589844 86.152344 L 159.023438 86.152344 L 159.023438 94.730469 L 141.875 94.730469 L 141.875 103.296875 L 133.296875 103.296875 L 133.296875 111.875 L 124.730469 111.875 L 124.730469 127.566406 L 114.71875 127.566406 L 114.71875 153.292969 L 116.160156 153.292969 L 116.160156 171.867188 L 114.71875 171.867188 L 114.71875 170.429688 L 106.144531 170.429688 L 106.144531 110.433594 L 114.71875 110.433594 L 114.71875 108.996094 L 121.851562 108.996094 L 121.851562 101.855469 L 123.289062 101.855469 L 123.289062 100.417969 L 130.417969 100.417969 Z M 181.855469 160.417969 L 183.296875 160.417969 L 183.296875 161.859375 L 191.867188 161.859375 L 191.867188 160.417969 L 193.308594 160.417969 L 193.308594 171.867188 L 191.867188 171.867188 L 191.867188 170.429688 L 183.296875 170.429688 L 183.296875 171.867188 L 181.855469 171.867188 Z M 207.570312 160.417969 L 219.019531 160.417969 L 219.019531 161.859375 L 217.582031 161.859375 L 217.582031 196.148438 L 219.019531 196.148438 L 219.019531 197.589844 L 207.570312 197.589844 Z M 207.570312 74.703125 L 219.019531 74.703125 L 219.019531 83.269531 L 236.167969 83.269531 L 236.167969 91.847656 L 244.742188 91.847656 L 244.742188 100.417969 L 251.871094 100.417969 L 251.871094 101.855469 L 253.3125 101.855469 L 253.3125 108.996094 L 260.441406 108.996094 L 260.441406 110.433594 L 269.019531 110.433594 L 269.019531 170.429688 L 260.441406 170.429688 L 260.441406 171.867188 L 259 171.867188 L 259 153.292969 L 260.441406 153.292969 L 260.441406 127.566406 L 250.433594 127.566406 L 250.433594 111.875 L 241.863281 111.875 L 241.863281 103.296875 L 233.285156 103.296875 L 233.285156 94.730469 L 216.140625 94.730469 L 216.140625 86.152344 L 207.570312 86.152344 Z M 207.570312 288.996094 L 216.140625 288.996094 L 216.140625 271.847656 L 227.597656 271.847656 L 227.597656 288.996094 L 241.863281 288.996094 L 241.863281 280.425781 L 250.433594 280.425781 L 250.433594 254.703125 L 259 254.703125 L 259 196.148438 L 260.441406 196.148438 L 260.441406 187.574219 L 269.019531 187.574219 L 269.019531 179.007812 L 277.585938 179.007812 L 277.585938 177.566406 L 279.027344 177.566406 L 279.027344 186.132812 L 284.726562 186.132812 L 284.726562 170.429688 L 286.164062 170.429688 L 286.164062 134.707031 L 293.292969 134.707031 L 293.292969 127.566406 L 294.730469 127.566406 L 294.730469 119 L 286.164062 119 L 286.164062 110.433594 L 277.585938 110.433594 L 277.585938 101.855469 L 276.144531 101.855469 L 276.144531 59 L 277.585938 59 L 277.585938 41.863281 L 286.164062 41.863281 L 286.164062 24.71875 L 294.730469 24.71875 L 294.730469 16.140625 L 293.292969 16.140625 L 293.292969 14.699219 L 301.863281 14.699219 L 301.863281 9.011719 L 270.457031 9.011719 L 270.457031 24.71875 L 269.019531 24.71875 L 269.019531 26.15625 L 253.3125 26.15625 L 253.3125 51.871094 L 244.742188 51.871094 L 244.742188 77.585938 L 224.714844 77.585938 L 224.714844 69.015625 L 199.003906 69.015625 L 199.003906 43.304688 L 176.15625 43.304688 L 176.15625 69.015625 L 150.445312 69.015625 L 150.445312 77.585938 L 130.417969 77.585938 L 130.417969 51.871094 L 121.851562 51.871094 L 121.851562 34.726562 L 114.71875 34.726562 L 114.71875 33.289062 L 113.28125 33.289062 L 113.28125 26.15625 L 106.144531 26.15625 L 106.144531 24.71875 L 104.703125 24.71875 L 104.703125 17.578125 L 97.574219 17.578125 L 97.574219 16.140625 L 96.132812 16.140625 L 96.132812 9.011719 L 73.300781 9.011719 L 73.300781 14.699219 L 81.867188 14.699219 L 81.867188 16.140625 L 80.429688 16.140625 L 80.429688 24.71875 L 89 24.71875 L 89 33.289062 L 97.574219 33.289062 L 97.574219 59 L 99.015625 59 L 99.015625 93.289062 L 97.574219 93.289062 L 97.574219 110.433594 L 89 110.433594 L 89 119 L 80.429688 119 L 80.429688 127.566406 L 81.867188 127.566406 L 81.867188 134.707031 L 89 134.707031 L 89 179.007812 L 90.4375 179.007812 L 90.4375 186.132812 L 99.015625 186.132812 L 99.015625 197.589844 L 90.4375 197.589844 L 90.4375 203.277344 L 99.015625 203.277344 L 99.015625 214.726562 L 90.4375 214.726562 L 90.4375 220.421875 L 99.015625 220.421875 L 99.015625 228.988281 L 107.585938 228.988281 L 107.585938 237.566406 L 116.160156 237.566406 L 116.160156 254.703125 L 124.730469 254.703125 L 124.730469 280.425781 L 133.296875 280.425781 L 133.296875 288.996094 L 147.5625 288.996094 L 147.5625 271.847656 L 159.023438 271.847656 L 159.023438 288.996094 L 167.589844 288.996094 L 167.589844 297.5625 L 184.738281 297.5625 L 184.738281 306.140625 L 190.425781 306.140625 L 190.425781 297.5625 L 207.570312 297.5625 Z M 276.144531 203.277344 L 276.144531 214.726562 L 284.726562 214.726562 L 284.726562 220.421875 L 276.144531 220.421875 L 276.144531 228.988281 L 270.457031 228.988281 L 270.457031 189.011719 L 276.144531 189.011719 L 276.144531 197.589844 L 284.726562 197.589844 L 284.726562 203.277344 Z M 209.011719 316.144531 L 217.582031 316.144531 L 217.582031 350.4375 L 209.011719 350.4375 L 209.011719 359.007812 L 191.867188 359.007812 L 191.867188 316.144531 L 200.441406 316.144531 L 200.441406 341.859375 L 209.011719 341.859375 Z M 174.71875 316.144531 L 183.296875 316.144531 L 183.296875 359.007812 L 166.148438 359.007812 L 166.148438 350.4375 L 157.582031 350.4375 L 157.582031 316.144531 L 166.148438 316.144531 L 166.148438 341.859375 L 174.71875 341.859375 Z M 244.742188 326.15625 L 233.285156 326.15625 L 233.285156 314.707031 L 244.742188 314.707031 Z M 311.878906 299 L 251.871094 299 L 251.871094 290.433594 L 243.300781 290.433594 L 243.300781 299 L 234.726562 299 L 234.726562 307.578125 L 236.167969 307.578125 L 236.167969 309.019531 L 227.597656 309.019531 L 227.597656 331.851562 L 250.433594 331.851562 L 250.433594 307.578125 L 329.015625 307.578125 L 329.015625 299 L 311.878906 299"/><path fill="#FFF" d="M 89 179.007812 L 89 187.574219 L 97.574219 187.574219 L 97.574219 179.007812 Z M 97.574219 196.148438 L 89 196.148438 L 89 204.71875 L 97.574219 204.71875 L 97.574219 213.289062 L 89 213.289062 L 89 221.863281 L 97.574219 221.863281 L 97.574219 230.429688 L 106.144531 230.429688 L 106.144531 187.574219 L 97.574219 187.574219 Z M 123.289062 187.574219 L 131.859375 187.574219 L 131.859375 170.429688 L 123.289062 170.429688 L 123.289062 153.292969 L 114.71875 153.292969 L 114.71875 179.007812 L 123.289062 179.007812 Z M 131.859375 239.007812 L 123.289062 239.007812 L 123.289062 247.574219 L 131.859375 247.574219 Z M 131.859375 230.429688 L 140.4375 230.429688 L 140.4375 290.433594 L 131.859375 290.433594 L 131.859375 281.863281 L 123.289062 281.863281 L 123.289062 264.71875 L 131.859375 264.71875 L 131.859375 256.144531 L 114.71875 256.144531 L 114.71875 196.148438 L 123.289062 196.148438 L 123.289062 213.289062 L 131.859375 213.289062 Z M 149.003906 161.859375 L 157.582031 161.859375 L 157.582031 153.292969 L 166.148438 153.292969 L 166.148438 84.710938 L 157.582031 84.710938 L 157.582031 93.289062 L 140.4375 93.289062 L 140.4375 101.855469 L 131.859375 101.855469 L 131.859375 110.433594 L 123.289062 110.433594 L 123.289062 127.566406 L 131.859375 127.566406 L 131.859375 153.292969 L 140.4375 153.292969 L 140.4375 161.859375 Z M 149.003906 213.289062 L 149.003906 221.863281 L 166.148438 221.863281 L 166.148438 213.289062 Z M 166.148438 170.429688 L 166.148438 196.148438 L 209.011719 196.148438 L 209.011719 161.859375 L 200.441406 161.859375 L 200.441406 153.292969 L 191.867188 153.292969 L 191.867188 179.007812 L 183.296875 179.007812 L 183.296875 153.292969 L 174.71875 153.292969 L 174.71875 161.859375 L 166.148438 161.859375 Z M 166.148438 273.289062 L 166.148438 281.863281 L 174.71875 281.863281 L 174.71875 273.289062 Z M 191.867188 84.710938 L 200.441406 84.710938 L 200.441406 41.863281 L 174.71875 41.863281 L 174.71875 84.710938 Z M 209.011719 281.863281 L 209.011719 273.289062 L 200.441406 273.289062 L 200.441406 281.863281 Z M 209.011719 213.289062 L 209.011719 221.863281 L 226.15625 221.863281 L 226.15625 213.289062 Z M 200.441406 247.574219 L 200.441406 239.007812 L 191.867188 239.007812 L 191.867188 247.574219 Z M 183.296875 247.574219 L 183.296875 239.007812 L 174.71875 239.007812 L 174.71875 247.574219 Z M 217.582031 230.429688 L 226.15625 230.429688 L 226.15625 247.574219 L 217.582031 247.574219 L 217.582031 256.144531 L 209.011719 256.144531 L 209.011719 264.71875 L 200.441406 264.71875 L 200.441406 256.144531 L 191.867188 256.144531 L 191.867188 264.71875 L 200.441406 264.71875 L 200.441406 273.289062 L 191.867188 273.289062 L 191.867188 281.863281 L 200.441406 281.863281 L 200.441406 290.433594 L 191.867188 290.433594 L 191.867188 307.578125 L 183.296875 307.578125 L 183.296875 290.433594 L 174.71875 290.433594 L 174.71875 281.863281 L 183.296875 281.863281 L 183.296875 273.289062 L 174.71875 273.289062 L 174.71875 264.71875 L 183.296875 264.71875 L 183.296875 256.144531 L 174.71875 256.144531 L 174.71875 264.71875 L 166.148438 264.71875 L 166.148438 256.144531 L 157.582031 256.144531 L 157.582031 247.574219 L 149.003906 247.574219 L 149.003906 230.429688 L 157.582031 230.429688 L 157.582031 239.007812 L 166.148438 239.007812 L 166.148438 230.429688 L 209.011719 230.429688 L 209.011719 239.007812 L 217.582031 239.007812 Z M 234.726562 153.292969 L 243.300781 153.292969 L 243.300781 127.566406 L 251.871094 127.566406 L 251.871094 110.433594 L 243.300781 110.433594 L 243.300781 101.855469 L 234.726562 101.855469 L 234.726562 93.289062 L 217.582031 93.289062 L 217.582031 84.710938 L 209.011719 84.710938 L 209.011719 153.292969 L 217.582031 153.292969 L 217.582031 161.859375 L 234.726562 161.859375 Z M 251.871094 161.859375 L 251.871094 170.429688 L 243.300781 170.429688 L 243.300781 187.574219 L 251.871094 187.574219 L 251.871094 179.007812 L 260.441406 179.007812 L 260.441406 153.292969 L 251.871094 153.292969 Z M 251.871094 239.007812 L 243.300781 239.007812 L 243.300781 247.574219 L 251.871094 247.574219 Z M 251.871094 196.148438 L 260.441406 196.148438 L 260.441406 256.144531 L 243.300781 256.144531 L 243.300781 264.71875 L 251.871094 264.71875 L 251.871094 281.863281 L 243.300781 281.863281 L 243.300781 290.433594 L 234.726562 290.433594 L 234.726562 221.863281 L 243.300781 221.863281 L 243.300781 213.289062 L 251.871094 213.289062 Z M 269.019531 196.148438 L 269.019531 230.429688 L 277.585938 230.429688 L 277.585938 221.863281 L 286.164062 221.863281 L 286.164062 213.289062 L 277.585938 213.289062 L 277.585938 204.71875 L 286.164062 204.71875 L 286.164062 196.148438 L 277.585938 196.148438 L 277.585938 187.574219 L 269.019531 187.574219 Z M 286.164062 170.429688 L 286.164062 187.574219 L 277.585938 187.574219 L 277.585938 170.429688 L 286.164062 170.429688"/><path fill="#513784" d="M 54.714844 281.863281 L 63.285156 281.863281 L 63.285156 273.289062 L 54.714844 273.289062 Z M 71.859375 281.863281 L 80.429688 281.863281 L 80.429688 273.289062 L 71.859375 273.289062 Z M 89 127.566406 L 80.429688 127.566406 L 80.429688 136.144531 L 89 136.144531 Z M 89 281.863281 L 97.574219 281.863281 L 97.574219 273.289062 L 89 273.289062 Z M 106.144531 84.710938 L 106.144531 59 L 97.574219 59 L 97.574219 93.289062 L 106.144531 93.289062 Z M 97.574219 179.007812 L 97.574219 187.574219 L 106.144531 187.574219 L 106.144531 179.007812 Z M 106.144531 196.148438 L 106.144531 239.007812 L 114.71875 239.007812 L 114.71875 187.574219 L 106.144531 187.574219 Z M 183.296875 93.289062 L 183.296875 101.855469 L 174.71875 101.855469 L 174.71875 144.714844 L 200.441406 144.714844 L 200.441406 101.855469 L 191.867188 101.855469 L 191.867188 93.289062 Z M 140.4375 93.289062 L 131.859375 93.289062 L 131.859375 76.144531 L 149.003906 76.144531 L 149.003906 67.574219 L 174.71875 67.574219 L 174.71875 84.710938 L 200.441406 84.710938 L 200.441406 67.574219 L 226.15625 67.574219 L 226.15625 76.144531 L 243.300781 76.144531 L 243.300781 93.289062 L 234.726562 93.289062 L 234.726562 84.710938 L 217.582031 84.710938 L 217.582031 76.144531 L 209.011719 76.144531 L 209.011719 153.292969 L 217.582031 153.292969 L 217.582031 161.859375 L 200.441406 161.859375 L 200.441406 153.292969 L 174.71875 153.292969 L 174.71875 161.859375 L 157.582031 161.859375 L 157.582031 153.292969 L 166.148438 153.292969 L 166.148438 76.144531 L 157.582031 76.144531 L 157.582031 84.710938 L 140.4375 84.710938 Z M 140.4375 316.144531 L 131.859375 316.144531 L 131.859375 324.714844 L 140.4375 324.714844 Z M 140.4375 307.578125 L 149.003906 307.578125 L 149.003906 333.292969 L 123.289062 333.292969 L 123.289062 307.578125 Z M 149.003906 230.429688 L 149.003906 221.863281 L 140.4375 221.863281 L 140.4375 204.71875 L 174.71875 204.71875 L 174.71875 196.148438 L 140.4375 196.148438 L 140.4375 179.007812 L 131.859375 179.007812 L 131.859375 196.148438 L 123.289062 196.148438 L 123.289062 213.289062 L 131.859375 213.289062 L 131.859375 230.429688 L 140.4375 230.429688 L 140.4375 247.574219 L 149.003906 247.574219 Z M 157.582031 239.007812 L 166.148438 239.007812 L 166.148438 230.429688 L 157.582031 230.429688 Z M 174.71875 281.863281 L 166.148438 281.863281 L 166.148438 273.289062 L 174.71875 273.289062 L 174.71875 264.71875 L 166.148438 264.71875 L 166.148438 256.144531 L 157.582031 256.144531 L 157.582031 247.574219 L 149.003906 247.574219 L 149.003906 273.289062 L 157.582031 273.289062 L 157.582031 290.433594 L 166.148438 290.433594 L 166.148438 299 L 183.296875 299 L 183.296875 290.433594 L 174.71875 290.433594 Z M 200.441406 230.429688 L 209.011719 230.429688 L 209.011719 221.863281 L 200.441406 221.863281 L 200.441406 213.289062 L 191.867188 213.289062 L 191.867188 221.863281 L 183.296875 221.863281 L 183.296875 213.289062 L 174.71875 213.289062 L 174.71875 221.863281 L 166.148438 221.863281 L 166.148438 230.429688 Z M 217.582031 239.007812 L 217.582031 230.429688 L 209.011719 230.429688 L 209.011719 239.007812 Z M 217.582031 256.144531 L 209.011719 256.144531 L 209.011719 264.71875 L 200.441406 264.71875 L 200.441406 273.289062 L 209.011719 273.289062 L 209.011719 281.863281 L 200.441406 281.863281 L 200.441406 290.433594 L 191.867188 290.433594 L 191.867188 299 L 209.011719 299 L 209.011719 290.433594 L 217.582031 290.433594 L 217.582031 273.289062 L 226.15625 273.289062 L 226.15625 247.574219 L 217.582031 247.574219 Z M 226.15625 230.429688 L 226.15625 247.574219 L 234.726562 247.574219 L 234.726562 221.863281 L 226.15625 221.863281 Z M 243.300781 187.574219 L 243.300781 179.007812 L 234.726562 179.007812 L 234.726562 196.148438 L 200.441406 196.148438 L 200.441406 204.71875 L 234.726562 204.71875 L 234.726562 221.863281 L 243.300781 221.863281 L 243.300781 213.289062 L 251.871094 213.289062 L 251.871094 196.148438 L 243.300781 196.148438 Z M 243.300781 316.144531 L 234.726562 316.144531 L 234.726562 324.714844 L 243.300781 324.714844 Z M 243.300781 307.578125 L 251.871094 307.578125 L 251.871094 333.292969 L 226.15625 333.292969 L 226.15625 307.578125 Z M 277.585938 93.289062 L 277.585938 59 L 269.019531 59 L 269.019531 101.855469 L 277.585938 101.855469 Z M 277.585938 281.863281 L 286.164062 281.863281 L 286.164062 273.289062 L 277.585938 273.289062 Z M 294.730469 127.566406 L 286.164062 127.566406 L 286.164062 136.144531 L 294.730469 136.144531 Z M 294.730469 281.863281 L 303.300781 281.863281 L 303.300781 273.289062 L 294.730469 273.289062 Z M 320.449219 273.289062 L 320.449219 281.863281 L 311.878906 281.863281 L 311.878906 273.289062 L 320.449219 273.289062"/><g clip-path="url(#b)"><path fill="#FF1616" d="M 97.574219 7.574219 L 97.574219 16.140625 L 71.859375 16.140625 L 71.859375 7.574219 Z M 106.144531 16.140625 L 106.144531 24.71875 L 97.574219 24.71875 L 97.574219 16.140625 Z M 89 281.863281 L 89 273.289062 L 97.574219 273.289062 L 97.574219 281.863281 Z M 71.859375 281.863281 L 71.859375 273.289062 L 80.429688 273.289062 L 80.429688 281.863281 Z M 54.714844 281.863281 L 54.714844 273.289062 L 63.285156 273.289062 L 63.285156 281.863281 Z M 97.574219 264.71875 L 37.566406 264.71875 L 37.566406 281.863281 L 20.421875 281.863281 L 20.421875 290.433594 L 114.71875 290.433594 L 114.71875 264.71875 Z M 114.71875 24.71875 L 114.71875 33.289062 L 106.144531 33.289062 L 106.144531 24.71875 Z M 123.289062 50.429688 L 131.859375 50.429688 L 131.859375 101.855469 L 123.289062 101.855469 L 123.289062 59 L 114.71875 59 L 114.71875 33.289062 L 123.289062 33.289062 Z M 114.71875 101.855469 L 123.289062 101.855469 L 123.289062 110.433594 L 114.71875 110.433594 Z M 123.289062 239.007812 L 131.859375 239.007812 L 131.859375 247.574219 L 123.289062 247.574219 Z M 123.289062 256.144531 L 131.859375 256.144531 L 131.859375 264.71875 L 123.289062 264.71875 Z M 140.4375 247.574219 L 149.003906 247.574219 L 149.003906 290.433594 L 140.4375 290.433594 Z M 191.867188 101.855469 L 183.296875 101.855469 L 183.296875 93.289062 L 191.867188 93.289062 Z M 191.867188 101.855469 L 200.441406 101.855469 L 200.441406 144.714844 L 174.71875 144.714844 L 174.71875 101.855469 L 183.296875 101.855469 L 183.296875 119 L 191.867188 119 Z M 226.15625 247.574219 L 234.726562 247.574219 L 234.726562 290.433594 L 226.15625 290.433594 Z M 251.871094 93.289062 L 251.871094 101.855469 L 243.300781 101.855469 L 243.300781 50.429688 L 251.871094 50.429688 L 251.871094 24.71875 L 269.019531 24.71875 L 269.019531 33.289062 L 260.441406 33.289062 L 260.441406 59 L 251.871094 59 Z M 243.300781 239.007812 L 251.871094 239.007812 L 251.871094 247.574219 L 243.300781 247.574219 Z M 243.300781 256.144531 L 251.871094 256.144531 L 251.871094 264.71875 L 243.300781 264.71875 Z M 251.871094 110.433594 L 251.871094 101.855469 L 260.441406 101.855469 L 260.441406 110.433594 Z M 277.585938 24.71875 L 269.019531 24.71875 L 269.019531 7.574219 L 303.300781 7.574219 L 303.300781 16.140625 L 277.585938 16.140625 Z M 311.878906 281.863281 L 311.878906 273.289062 L 320.449219 273.289062 L 320.449219 281.863281 Z M 294.730469 281.863281 L 294.730469 273.289062 L 303.300781 273.289062 L 303.300781 281.863281 Z M 277.585938 281.863281 L 277.585938 273.289062 L 286.164062 273.289062 L 286.164062 281.863281 Z M 346.164062 281.863281 L 337.59375 281.863281 L 337.59375 264.71875 L 260.441406 264.71875 L 260.441406 290.433594 L 354.742188 290.433594 L 354.742188 281.863281 L 346.164062 281.863281"/></g></svg>